<svg width="154" height="20" viewBox="0 0 154 20" fill="none" xmlns="http://www.w3.org/2000/svg">
<path d="M10.04 15.5L7.18 11.4C7.06 11.4133 6.88 11.42 6.64 11.42H3.48V15.5H0.88V1.5H6.64C7.85333 1.5 8.90667 1.7 9.8 2.1C10.7067 2.5 11.4 3.07333 11.88 3.82C12.36 4.56667 12.6 5.45333 12.6 6.48C12.6 7.53333 12.34 8.44 11.82 9.2C11.3133 9.96 10.58 10.5267 9.62 10.9L12.84 15.5H10.04ZM9.98 6.48C9.98 5.58667 9.68667 4.9 9.1 4.42C8.51333 3.94 7.65333 3.7 6.52 3.7H3.48V9.28H6.52C7.65333 9.28 8.51333 9.04 9.1 8.56C9.68667 8.06667 9.98 7.37333 9.98 6.48ZM25.3089 10.22C25.3089 10.3933 25.2956 10.64 25.2689 10.96H16.8889C17.0356 11.7467 17.4156 12.3733 18.0289 12.84C18.6556 13.2933 19.4289 13.52 20.3489 13.52C21.5222 13.52 22.4889 13.1333 23.2489 12.36L24.5889 13.9C24.1089 14.4733 23.5022 14.9067 22.7689 15.2C22.0356 15.4933 21.2089 15.64 20.2889 15.64C19.1156 15.64 18.0822 15.4067 17.1889 14.94C16.2956 14.4733 15.6022 13.8267 15.1089 13C14.6289 12.16 14.3889 11.2133 14.3889 10.16C14.3889 9.12 14.6222 8.18667 15.0889 7.36C15.5689 6.52 16.2289 5.86667 17.0689 5.4C17.9089 4.93333 18.8556 4.7 19.9089 4.7C20.9489 4.7 21.8756 4.93333 22.6889 5.4C23.5156 5.85333 24.1556 6.5 24.6089 7.34C25.0756 8.16667 25.3089 9.12667 25.3089 10.22ZM19.9089 6.7C19.1089 6.7 18.4289 6.94 17.8689 7.42C17.3222 7.88667 16.9889 8.51333 16.8689 9.3H22.9289C22.8222 8.52667 22.4956 7.9 21.9489 7.42C21.4022 6.94 20.7222 6.7 19.9089 6.7ZM37.515 4.82L32.935 15.5H30.355L25.775 4.82H28.375L31.695 12.74L35.115 4.82H37.515ZM48.8245 10.22C48.8245 10.3933 48.8112 10.64 48.7845 10.96H40.4045C40.5512 11.7467 40.9312 12.3733 41.5445 12.84C42.1712 13.2933 42.9445 13.52 43.8645 13.52C45.0379 13.52 46.0045 13.1333 46.7645 12.36L48.1045 13.9C47.6245 14.4733 47.0179 14.9067 46.2845 15.2C45.5512 15.4933 44.7245 15.64 43.8045 15.64C42.6312 15.64 41.5979 15.4067 40.7045 14.94C39.8112 14.4733 39.1179 13.8267 38.6245 13C38.1445 12.16 37.9045 11.2133 37.9045 10.16C37.9045 9.12 38.1379 8.18667 38.6045 7.36C39.0845 6.52 39.7445 5.86667 40.5845 5.4C41.4245 4.93333 42.3712 4.7 43.4245 4.7C44.4645 4.7 45.3912 4.93333 46.2045 5.4C47.0312 5.85333 47.6712 6.5 48.1245 7.34C48.5912 8.16667 48.8245 9.12667 48.8245 10.22ZM43.4245 6.7C42.6245 6.7 41.9445 6.94 41.3845 7.42C40.8379 7.88667 40.5045 8.51333 40.3845 9.3H46.4445C46.3379 8.52667 46.0112 7.9 45.4645 7.42C44.9179 6.94 44.2379 6.7 43.4245 6.7ZM57.2859 4.7C58.6326 4.7 59.7126 5.09333 60.5259 5.88C61.3393 6.66667 61.7459 7.83333 61.7459 9.38V15.5H59.2459V9.7C59.2459 8.76667 59.0259 8.06667 58.5859 7.6C58.1459 7.12 57.5193 6.88 56.7059 6.88C55.7859 6.88 55.0593 7.16 54.5259 7.72C53.9926 8.26667 53.7259 9.06 53.7259 10.1V15.5H51.2259V4.82H53.6059V6.2C54.0193 5.70667 54.5393 5.33333 55.1659 5.08C55.7926 4.82667 56.4993 4.7 57.2859 4.7ZM75.2573 4.82V15.5H72.8773V14.14C72.4773 14.62 71.9773 14.9933 71.3773 15.26C70.7773 15.5133 70.1307 15.64 69.4373 15.64C68.0107 15.64 66.884 15.2467 66.0573 14.46C65.244 13.66 64.8373 12.48 64.8373 10.92V4.82H67.3373V10.58C67.3373 11.54 67.5507 12.26 67.9773 12.74C68.4173 13.2067 69.0373 13.44 69.8373 13.44C70.7307 13.44 71.4373 13.1667 71.9573 12.62C72.4907 12.06 72.7573 11.26 72.7573 10.22V4.82H75.2573ZM88.5706 10.22C88.5706 10.3933 88.5573 10.64 88.5306 10.96H80.1506C80.2973 11.7467 80.6773 12.3733 81.2906 12.84C81.9173 13.2933 82.6906 13.52 83.6106 13.52C84.784 13.52 85.7506 13.1333 86.5106 12.36L87.8506 13.9C87.3706 14.4733 86.764 14.9067 86.0306 15.2C85.2973 15.4933 84.4706 15.64 83.5506 15.64C82.3773 15.64 81.344 15.4067 80.4506 14.94C79.5573 14.4733 78.864 13.8267 78.3706 13C77.8906 12.16 77.6506 11.2133 77.6506 10.16C77.6506 9.12 77.884 8.18667 78.3506 7.36C78.8306 6.52 79.4906 5.86667 80.3306 5.4C81.1706 4.93333 82.1173 4.7 83.1706 4.7C84.2106 4.7 85.1373 4.93333 85.9506 5.4C86.7773 5.85333 87.4173 6.5 87.8706 7.34C88.3373 8.16667 88.5706 9.12667 88.5706 10.22ZM83.1706 6.7C82.3706 6.7 81.6906 6.94 81.1306 7.42C80.584 7.88667 80.2506 8.51333 80.1306 9.3H86.1906C86.084 8.52667 85.7573 7.9 85.2106 7.42C84.664 6.94 83.984 6.7 83.1706 6.7ZM95.552 15.7C94.472 15.7 93.4254 15.5467 92.412 15.24C91.412 14.9333 90.6187 14.5267 90.032 14.02L90.932 12C91.5054 12.4533 92.2054 12.8267 93.032 13.12C93.872 13.4 94.712 13.54 95.552 13.54C96.592 13.54 97.3654 13.3733 97.872 13.04C98.392 12.7067 98.652 12.2667 98.652 11.72C98.652 11.32 98.5054 10.9933 98.212 10.74C97.932 10.4733 97.572 10.2667 97.132 10.12C96.692 9.97333 96.092 9.80667 95.332 9.62C94.2654 9.36667 93.3987 9.11333 92.732 8.86C92.0787 8.60667 91.512 8.21333 91.032 7.68C90.5654 7.13333 90.332 6.4 90.332 5.48C90.332 4.70667 90.5387 4.00667 90.952 3.38C91.3787 2.74 92.012 2.23333 92.852 1.86C93.7054 1.48667 94.7454 1.3 95.972 1.3C96.8254 1.3 97.6654 1.40667 98.492 1.62C99.3187 1.83333 100.032 2.14 100.632 2.54L99.812 4.56C99.1987 4.2 98.5587 3.92667 97.892 3.74C97.2254 3.55333 96.5787 3.46 95.952 3.46C94.9254 3.46 94.1587 3.63333 93.652 3.98C93.1587 4.32667 92.912 4.78667 92.912 5.36C92.912 5.76 93.052 6.08667 93.332 6.34C93.6254 6.59333 93.992 6.79333 94.432 6.94C94.872 7.08667 95.472 7.25333 96.232 7.44C97.272 7.68 98.1254 7.93333 98.792 8.2C99.4587 8.45333 100.025 8.84667 100.492 9.38C100.972 9.91333 101.212 10.6333 101.212 11.54C101.212 12.3133 100.999 13.0133 100.572 13.64C100.159 14.2667 99.5254 14.7667 98.672 15.14C97.8187 15.5133 96.7787 15.7 95.552 15.7ZM113.99 4.82V19.38H111.49V14.2C110.65 15.16 109.51 15.64 108.07 15.64C107.03 15.64 106.097 15.4133 105.27 14.96C104.457 14.5067 103.817 13.8667 103.35 13.04C102.897 12.2133 102.67 11.2533 102.67 10.16C102.67 9.08 102.903 8.12667 103.37 7.3C103.837 6.47333 104.477 5.83333 105.29 5.38C106.103 4.92667 107.03 4.7 108.07 4.7C108.803 4.7 109.47 4.82667 110.07 5.08C110.683 5.33333 111.197 5.71333 111.61 6.22V4.82H113.99ZM108.35 13.5C109.27 13.5 110.03 13.1933 110.63 12.58C111.23 11.9667 111.53 11.16 111.53 10.16C111.53 9.16 111.23 8.35333 110.63 7.74C110.03 7.12667 109.27 6.82 108.35 6.82C107.43 6.82 106.67 7.12667 106.07 7.74C105.483 8.35333 105.19 9.16 105.19 10.16C105.19 11.16 105.483 11.9667 106.07 12.58C106.67 13.1933 107.43 13.5 108.35 13.5ZM127.601 4.82V15.5H125.221V14.14C124.821 14.62 124.321 14.9933 123.721 15.26C123.121 15.5133 122.474 15.64 121.781 15.64C120.354 15.64 119.228 15.2467 118.401 14.46C117.588 13.66 117.181 12.48 117.181 10.92V4.82H119.681V10.58C119.681 11.54 119.894 12.26 120.321 12.74C120.761 13.2067 121.381 13.44 122.181 13.44C123.074 13.44 123.781 13.1667 124.301 12.62C124.834 12.06 125.101 11.26 125.101 10.22V4.82H127.601ZM134.954 4.7C136.528 4.7 137.728 5.08 138.554 5.84C139.394 6.58667 139.814 7.72 139.814 9.24V15.5H137.454V14.2C137.148 14.6667 136.708 15.0267 136.134 15.28C135.574 15.52 134.894 15.64 134.094 15.64C133.294 15.64 132.594 15.5067 131.994 15.24C131.394 14.96 130.928 14.58 130.594 14.1C130.274 13.6067 130.114 13.0533 130.114 12.44C130.114 11.48 130.468 10.7133 131.174 10.14C131.894 9.55333 133.021 9.26 134.554 9.26H137.314V9.1C137.314 8.35333 137.088 7.78 136.634 7.38C136.194 6.98 135.534 6.78 134.654 6.78C134.054 6.78 133.461 6.87333 132.874 7.06C132.301 7.24667 131.814 7.50667 131.414 7.84L130.434 6.02C130.994 5.59333 131.668 5.26667 132.454 5.04C133.241 4.81333 134.074 4.7 134.954 4.7ZM134.614 13.82C135.241 13.82 135.794 13.68 136.274 13.4C136.768 13.1067 137.114 12.6933 137.314 12.16V10.92H134.734C133.294 10.92 132.574 11.3933 132.574 12.34C132.574 12.7933 132.754 13.1533 133.114 13.42C133.474 13.6867 133.974 13.82 134.614 13.82ZM153.58 0.659999V15.5H151.18V14.12C150.767 14.6267 150.254 15.0067 149.64 15.26C149.04 15.5133 148.374 15.64 147.64 15.64C146.614 15.64 145.687 15.4133 144.86 14.96C144.047 14.5067 143.407 13.8667 142.94 13.04C142.474 12.2 142.24 11.24 142.24 10.16C142.24 9.08 142.474 8.12667 142.94 7.3C143.407 6.47333 144.047 5.83333 144.86 5.38C145.687 4.92667 146.614 4.7 147.64 4.7C148.347 4.7 148.994 4.82 149.58 5.06C150.167 5.3 150.667 5.66 151.08 6.14V0.659999H153.58ZM147.94 13.5C148.54 13.5 149.08 13.3667 149.56 13.1C150.04 12.82 150.42 12.4267 150.7 11.92C150.98 11.4133 151.12 10.8267 151.12 10.16C151.12 9.49333 150.98 8.90667 150.7 8.4C150.42 7.89333 150.04 7.50667 149.56 7.24C149.08 6.96 148.54 6.82 147.94 6.82C147.34 6.82 146.8 6.96 146.32 7.24C145.84 7.50667 145.46 7.89333 145.18 8.4C144.9 8.90667 144.76 9.49333 144.76 10.16C144.76 10.8267 144.9 11.4133 145.18 11.92C145.46 12.4267 145.84 12.82 146.32 13.1C146.8 13.3667 147.34 13.5 147.94 13.5Z" fill="#6236FF"/>
</svg>
